<svg xmlns="http://www.w3.org/2000/svg" viewBox="0 0 512 512">
  <rect width="512" height="512" rx="90" ry="90" fill="#3D2B1A"/>
  <path d="M256 120 C262 138, 272 168, 280 190 C288 212, 292 220, 316 220 C340 220, 370 220, 390 220 C372 236, 348 254, 332 266 C320 276, 316 284, 322 308 C328 332, 338 362, 344 382 C328 370, 302 352, 284 340 C272 332, 262 328, 256 328 C250 328, 240 332, 228 340 C210 352, 184 370, 168 382 C174 362, 184 332, 190 308 C196 284, 192 276, 180 266 C164 254, 140 236, 122 220 C142 220, 172 220, 196 220 C220 220, 224 212, 232 190 C240 168, 250 138, 256 120Z" fill="#D4C5A0"/>
</svg>
